<svg width="20" height="20" viewBox="0 0 20 20" fill="none" xmlns="http://www.w3.org/2000/svg">
<path d="M4.29163 13.3333H16.6666V3.33333H14.5833V9.16667L12.5 7.91667L10.4166 9.16667V3.33333H3.33329V14.2708L4.29163 13.3333ZM1.66663 18.3333V3.33333C1.66663 2.875 1.82996 2.4825 2.15663 2.15583C2.48329 1.82917 2.87551 1.66611 3.33329 1.66667H16.6666C17.125 1.66667 17.5175 1.83 17.8441 2.15667C18.1708 2.48333 18.3338 2.87556 18.3333 3.33333V13.3333C18.3333 13.7917 18.17 14.1842 17.8433 14.5108C17.5166 14.8375 17.1244 15.0006 16.6666 15H4.99996L1.66663 18.3333Z" fill="#7947B1"/>
</svg>
