<svg width="21" height="20" viewBox="0 0 21 20" fill="none" xmlns="http://www.w3.org/2000/svg">
<path d="M16.3334 19.4167L15.8334 19C14.1667 17.4167 13 16.4167 13 15.1667C13 14.1667 13.8334 13.3333 14.8334 13.3333C15.4167 13.3333 16 13.5833 16.3334 14C16.6667 13.5833 17.25 13.3333 17.8334 13.3333C18.8334 13.3333 19.6667 14.0833 19.6667 15.1667C19.6667 16.4167 18.5 17.4167 16.8334 19L16.3334 19.4167ZM15.5 1.66667C16.4167 1.66667 17.1667 2.41667 17.1667 3.33333V10.9L16.3334 10.8333L15.5 10.9V3.33333H11.3334V10L9.25004 8.125L7.16671 10V3.33333H5.50004V16.6667H11.4C11.5 17.2667 11.7084 17.825 12 18.3333H5.50004C4.58337 18.3333 3.83337 17.5833 3.83337 16.6667V3.33333C3.83337 2.41667 4.58337 1.66667 5.50004 1.66667H15.5Z" fill="#7947B1"/>
</svg>
