<svg width="21" height="20" viewBox="0 0 21 20" fill="none" xmlns="http://www.w3.org/2000/svg">
<g clip-path="url(#clip0_329_21)">
<path d="M6.07859 10.3571C5.55046 9.49772 5.27087 8.50873 5.27087 7.5C5.27087 6.49127 5.55046 5.50228 6.07859 4.64286" stroke="#7947B1" stroke-linecap="round" stroke-linejoin="round"/>
<path d="M6.60711 10.6C7.0016 10.6 7.32139 10.2802 7.32139 9.88571C7.32139 9.49123 7.0016 9.17143 6.60711 9.17143C6.21262 9.17143 5.89282 9.49123 5.89282 9.88571C5.89282 10.2802 6.21262 10.6 6.60711 10.6Z" stroke="#7947B1" stroke-linecap="round" stroke-linejoin="round"/>
<path d="M1.77854 10.3571C1.25041 9.49772 0.970825 8.50873 0.970825 7.5C0.970825 6.49127 1.25041 5.50228 1.77854 4.64286" stroke="#7947B1" stroke-linecap="round" stroke-linejoin="round"/>
<path d="M2.30706 10.6C2.70155 10.6 3.02134 10.2802 3.02134 9.88571C3.02134 9.49123 2.70155 9.17143 2.30706 9.17143C1.91257 9.17143 1.59277 9.49123 1.59277 9.88571C1.59277 10.2802 1.91257 10.6 2.30706 10.6Z" stroke="#7947B1" stroke-linecap="round" stroke-linejoin="round"/>
<path d="M14.4214 9.64286C14.9495 10.5023 15.2291 11.4913 15.2291 12.5C15.2291 13.5087 14.9495 14.4977 14.4214 15.3571" stroke="#7947B1" stroke-linecap="round" stroke-linejoin="round"/>
<path d="M13.8929 10.8286C14.2874 10.8286 14.6072 10.5088 14.6072 10.1143C14.6072 9.7198 14.2874 9.4 13.8929 9.4C13.4984 9.4 13.1786 9.7198 13.1786 10.1143C13.1786 10.5088 13.4984 10.8286 13.8929 10.8286Z" stroke="#7947B1" stroke-linecap="round" stroke-linejoin="round"/>
<path d="M18.7214 9.64286C19.2496 10.5023 19.5292 11.4913 19.5292 12.5C19.5292 13.5087 19.2496 14.4977 18.7214 15.3571" stroke="#7947B1" stroke-linecap="round" stroke-linejoin="round"/>
<path d="M18.1928 10.8286C18.5873 10.8286 18.9071 10.5088 18.9071 10.1143C18.9071 9.7198 18.5873 9.4 18.1928 9.4C17.7983 9.4 17.4785 9.7198 17.4785 10.1143C17.4785 10.5088 17.7983 10.8286 18.1928 10.8286Z" stroke="#7947B1" stroke-linecap="round" stroke-linejoin="round"/>
</g>
<defs>
<clipPath id="clip0_329_21">
<rect width="20" height="20" fill="white" transform="translate(0.25)"/>
</clipPath>
</defs>
</svg>
