<svg width="21" height="20" viewBox="0 0 21 20" fill="none" xmlns="http://www.w3.org/2000/svg">
<g clip-path="url(#clip0_329_38)">
<path d="M15.8333 15.3333C16.3 15.3333 16.6667 15.7 16.6667 16.1667C16.6667 16.6333 16.3 17 15.8333 17C15.3667 17 15 16.6333 15 16.1667C15 15.7 15.3667 15.3333 15.8333 15.3333ZM15.8333 12.8333C13.5583 12.8333 11.6167 14.2167 10.8333 16.1667C11.6167 18.1167 13.5583 19.5 15.8333 19.5C18.1083 19.5 20.05 18.1167 20.8333 16.1667C20.05 14.2167 18.1083 12.8333 15.8333 12.8333ZM15.8333 18.25C15.2808 18.25 14.7509 18.0305 14.3602 17.6398C13.9695 17.2491 13.75 16.7192 13.75 16.1667C13.75 15.6141 13.9695 15.0842 14.3602 14.6935C14.7509 14.3028 15.2808 14.0833 15.8333 14.0833C16.3859 14.0833 16.9158 14.3028 17.3065 14.6935C17.6972 15.0842 17.9167 15.6141 17.9167 16.1667C17.9167 16.7192 17.6972 17.2491 17.3065 17.6398C16.9158 18.0305 16.3859 18.25 15.8333 18.25ZM9.39167 17H6.66667V3.66667H12.5V7.83333H16.6667V11.225C17.25 11.2917 17.8 11.4333 18.3333 11.6333V7L13.3333 2H6.66667C6.22464 2 5.80072 2.17559 5.48816 2.48816C5.17559 2.80072 5 3.22464 5 3.66667V17C5 17.442 5.17559 17.8659 5.48816 18.1785C5.80072 18.4911 6.22464 18.6667 6.66667 18.6667H10.4167C9.99635 18.1635 9.6511 17.6021 9.39167 17Z" fill="#7947B1"/>
</g>
<defs>
<clipPath id="clip0_329_38">
<rect width="20" height="20" fill="white" transform="translate(0.75)"/>
</clipPath>
</defs>
</svg>
