<svg width="40" height="40" viewBox="0 0 40 40" fill="none" xmlns="http://www.w3.org/2000/svg">
<g filter="url(#filter0_ii_249_395)">
<path fill-rule="evenodd" clip-rule="evenodd" d="M12.7737 3.37507C13.0785 3.0705 13.4917 2.89941 13.9225 2.89941C14.3533 2.89941 14.7665 3.0705 15.0712 3.37507L36.6263 24.9301C36.852 25.1563 37.0013 25.4476 37.053 25.763C37.1048 26.0784 37.0565 26.4021 36.9149 26.6887C36.7732 26.9752 36.5454 27.2102 36.2634 27.3607C35.9814 27.5111 35.6594 27.5695 35.3425 27.5276L28.3175 26.5926C28.0774 26.5608 27.8333 26.5853 27.6043 26.6641C27.3753 26.7429 27.1678 26.8738 26.9981 27.0465C26.8283 27.2193 26.7011 27.4291 26.6264 27.6595C26.5517 27.8898 26.5315 28.1343 26.5675 28.3738L27.6175 35.3326C27.6651 35.6527 27.6106 35.9798 27.4617 36.2672C27.3128 36.5546 27.0772 36.7878 26.7882 36.9337C26.4992 37.0795 26.1717 37.1306 25.852 37.0797C25.5323 37.0288 25.2368 36.8785 25.0075 36.6501L3.40125 15.0438C3.09668 14.7391 2.92559 14.3259 2.92559 13.8951C2.92559 13.4642 3.09668 13.051 3.40125 12.7463L12.7737 3.37507ZM10.8925 13.4463C9.52625 13.4463 8.42 12.3226 8.42 10.9363C8.42 9.55007 9.52625 8.42632 10.8925 8.42632C12.2587 8.42632 13.3662 9.55132 13.3662 10.9363C13.3662 12.3226 12.2587 13.4463 10.8925 13.4463Z" fill="url(#paint0_linear_249_395)"/>
</g>
<g filter="url(#filter1_ii_249_395)">
<path d="M16.3213 15.4226C16.1925 15.3874 16.0566 15.3871 15.9277 15.422C15.7988 15.4568 15.6815 15.5254 15.588 15.6207C15.4944 15.716 15.4281 15.8346 15.3957 15.9641C15.3633 16.0937 15.3661 16.2295 15.4038 16.3576L15.8888 18.0139C15.9144 18.1012 15.9206 18.1932 15.907 18.2832C15.8934 18.3732 15.8603 18.4592 15.81 18.5351L14.8475 19.9876C14.773 20.1007 14.7306 20.2318 14.7246 20.367C14.7186 20.5023 14.7494 20.6366 14.8136 20.7558C14.8778 20.875 14.9731 20.9746 15.0893 21.044C15.2055 21.1134 15.3384 21.1501 15.4738 21.1501H17.15C17.2586 21.1503 17.3653 21.1787 17.4595 21.2326C17.5538 21.2865 17.6323 21.3641 17.6875 21.4576L18.475 22.7826C18.546 22.902 18.6488 22.9992 18.7719 23.0636C18.8949 23.128 19.0335 23.1569 19.172 23.1472C19.3105 23.1375 19.4437 23.0895 19.5565 23.0086C19.6694 22.9276 19.7576 22.817 19.8113 22.6889L20.5875 20.8389C20.6196 20.7616 20.667 20.6916 20.7266 20.633C20.7863 20.5744 20.8572 20.5283 20.935 20.4976L22.6975 19.8051C22.8255 19.7548 22.9372 19.6704 23.0204 19.5609C23.1036 19.4514 23.1551 19.3212 23.1693 19.1844C23.1835 19.0477 23.1598 18.9096 23.1009 18.7854C23.0419 18.6612 22.9499 18.5556 22.835 18.4801L21.435 17.5551C21.3525 17.5006 21.2841 17.4274 21.2354 17.3413C21.1868 17.2553 21.1592 17.1589 21.155 17.0601L21.0875 15.4326C21.0817 15.2988 21.0401 15.1689 20.9672 15.0565C20.8942 14.9442 20.7924 14.8534 20.6725 14.7937C20.5525 14.734 20.4188 14.7075 20.2851 14.717C20.1515 14.7264 20.0228 14.7716 19.9125 14.8476L18.5375 15.8001C18.4623 15.8519 18.3766 15.8866 18.2866 15.9017C18.1965 15.9168 18.1043 15.912 18.0163 15.8876L16.3213 15.4226Z" fill="#FF85A2"/>
</g>
<path d="M8.405 2.80627C8.405 2.45833 8.68706 2.17627 9.035 2.17627C9.38294 2.17627 9.665 2.45833 9.665 2.80627V7.83502C9.665 8.18296 9.38294 8.46502 9.035 8.46502C8.68706 8.46502 8.405 8.18296 8.405 7.83502V2.80627Z" fill="url(#paint1_linear_249_395)"/>
<path d="M8.405 2.80627C8.405 2.45833 8.68706 2.17627 9.035 2.17627C9.38294 2.17627 9.665 2.45833 9.665 2.80627V7.83502C9.665 8.18296 9.38294 8.46502 9.035 8.46502C8.68706 8.46502 8.405 8.18296 8.405 7.83502V2.80627Z" fill="url(#paint2_radial_249_395)"/>
<path d="M2.785 8.4275C2.43706 8.4275 2.155 8.70956 2.155 9.0575C2.155 9.40544 2.43706 9.6875 2.785 9.6875H7.81375C8.16169 9.6875 8.44375 9.40544 8.44375 9.0575C8.44375 8.70956 8.16169 8.4275 7.81375 8.4275H2.785Z" fill="url(#paint3_linear_249_395)"/>
<path d="M2.785 8.4275C2.43706 8.4275 2.155 8.70956 2.155 9.0575C2.155 9.40544 2.43706 9.6875 2.785 9.6875H7.81375C8.16169 9.6875 8.44375 9.40544 8.44375 9.0575C8.44375 8.70956 8.16169 8.4275 7.81375 8.4275H2.785Z" fill="url(#paint4_radial_249_395)"/>
<g filter="url(#filter2_i_249_395)">
<path d="M8.74853 7.88021C8.5025 7.63418 8.10361 7.63418 7.85758 7.88021C7.61155 8.12624 7.61155 8.52513 7.85758 8.77116L8.37819 9.29177C8.62422 9.5378 9.02311 9.5378 9.26914 9.29177C9.51517 9.04574 9.51517 8.64684 9.26914 8.40081L8.74853 7.88021Z" fill="#CD7C3D"/>
</g>
<g filter="url(#filter3_f_249_395)">
<path d="M8.21649 8.06983C8.14961 8.00295 8.04118 8.00295 7.9743 8.06983C7.90743 8.1367 7.90743 8.24513 7.9743 8.31201L8.67257 9.01028C8.73945 9.07716 8.84788 9.07716 8.91475 9.01028C8.98163 8.9434 8.98163 8.83497 8.91475 8.76809L8.21649 8.06983Z" fill="url(#paint5_radial_249_395)"/>
</g>
<g filter="url(#filter4_f_249_395)">
<path d="M8.6175 2.74245C8.6175 2.64994 8.69221 2.57495 8.78437 2.57495C8.87654 2.57495 8.95125 2.64994 8.95125 2.74245V7.9012C8.95125 7.99371 8.87654 8.0687 8.78437 8.0687C8.69221 8.0687 8.6175 7.99371 8.6175 7.9012V2.74245Z" fill="url(#paint6_linear_249_395)"/>
</g>
<g filter="url(#filter5_f_249_395)">
<path d="M2.52375 9.05616C2.43125 9.05616 2.35625 8.98145 2.35625 8.88929C2.35625 8.79713 2.43125 8.72241 2.52375 8.72241H7.6825C7.77501 8.72241 7.85 8.79713 7.85 8.88929C7.85 8.98145 7.77501 9.05616 7.6825 9.05616H2.52375Z" fill="url(#paint7_radial_249_395)"/>
</g>
<defs>
<filter id="filter0_ii_249_395" x="2.72559" y="2.89941" width="34.5476" height="34.3995" filterUnits="userSpaceOnUse" color-interpolation-filters="sRGB">
<feFlood flood-opacity="0" result="BackgroundImageFix"/>
<feBlend mode="normal" in="SourceGraphic" in2="BackgroundImageFix" result="shape"/>
<feColorMatrix in="SourceAlpha" type="matrix" values="0 0 0 0 0 0 0 0 0 0 0 0 0 0 0 0 0 0 127 0" result="hardAlpha"/>
<feOffset dx="-0.2" dy="0.2"/>
<feGaussianBlur stdDeviation="0.1"/>
<feComposite in2="hardAlpha" operator="arithmetic" k2="-1" k3="1"/>
<feColorMatrix type="matrix" values="0 0 0 0 1 0 0 0 0 0.384314 0 0 0 0 0.376471 0 0 0 1 0"/>
<feBlend mode="normal" in2="shape" result="effect1_innerShadow_249_395"/>
<feColorMatrix in="SourceAlpha" type="matrix" values="0 0 0 0 0 0 0 0 0 0 0 0 0 0 0 0 0 0 127 0" result="hardAlpha"/>
<feOffset dx="0.2" dy="0.2"/>
<feGaussianBlur stdDeviation="0.2"/>
<feComposite in2="hardAlpha" operator="arithmetic" k2="-1" k3="1"/>
<feColorMatrix type="matrix" values="0 0 0 0 0.780392 0 0 0 0 0.215686 0 0 0 0 0.231373 0 0 0 1 0"/>
<feBlend mode="normal" in2="effect1_innerShadow_249_395" result="effect2_innerShadow_249_395"/>
</filter>
<filter id="filter1_ii_249_395" x="14.2239" y="14.3151" width="9.34945" height="8.83408" filterUnits="userSpaceOnUse" color-interpolation-filters="sRGB">
<feFlood flood-opacity="0" result="BackgroundImageFix"/>
<feBlend mode="normal" in="SourceGraphic" in2="BackgroundImageFix" result="shape"/>
<feColorMatrix in="SourceAlpha" type="matrix" values="0 0 0 0 0 0 0 0 0 0 0 0 0 0 0 0 0 0 127 0" result="hardAlpha"/>
<feOffset dx="0.4" dy="-0.4"/>
<feGaussianBlur stdDeviation="0.3"/>
<feComposite in2="hardAlpha" operator="arithmetic" k2="-1" k3="1"/>
<feColorMatrix type="matrix" values="0 0 0 0 1 0 0 0 0 0.592157 0 0 0 0 0.65098 0 0 0 1 0"/>
<feBlend mode="normal" in2="shape" result="effect1_innerShadow_249_395"/>
<feColorMatrix in="SourceAlpha" type="matrix" values="0 0 0 0 0 0 0 0 0 0 0 0 0 0 0 0 0 0 127 0" result="hardAlpha"/>
<feOffset dx="-0.5"/>
<feGaussianBlur stdDeviation="0.375"/>
<feComposite in2="hardAlpha" operator="arithmetic" k2="-1" k3="1"/>
<feColorMatrix type="matrix" values="0 0 0 0 1 0 0 0 0 0.443137 0 0 0 0 0.52549 0 0 0 1 0"/>
<feBlend mode="normal" in2="effect1_innerShadow_249_395" result="effect2_innerShadow_249_395"/>
</filter>
<filter id="filter2_i_249_395" x="7.67306" y="7.4458" width="1.78061" height="2.03052" filterUnits="userSpaceOnUse" color-interpolation-filters="sRGB">
<feFlood flood-opacity="0" result="BackgroundImageFix"/>
<feBlend mode="normal" in="SourceGraphic" in2="BackgroundImageFix" result="shape"/>
<feColorMatrix in="SourceAlpha" type="matrix" values="0 0 0 0 0 0 0 0 0 0 0 0 0 0 0 0 0 0 127 0" result="hardAlpha"/>
<feOffset dy="-0.25"/>
<feGaussianBlur stdDeviation="0.25"/>
<feComposite in2="hardAlpha" operator="arithmetic" k2="-1" k3="1"/>
<feColorMatrix type="matrix" values="0 0 0 0 0.796078 0 0 0 0 0.396078 0 0 0 0 0.329412 0 0 0 1 0"/>
<feBlend mode="normal" in2="shape" result="effect1_innerShadow_249_395"/>
</filter>
<filter id="filter3_f_249_395" x="7.67414" y="7.76978" width="1.54077" height="1.54077" filterUnits="userSpaceOnUse" color-interpolation-filters="sRGB">
<feFlood flood-opacity="0" result="BackgroundImageFix"/>
<feBlend mode="normal" in="SourceGraphic" in2="BackgroundImageFix" result="shape"/>
<feGaussianBlur stdDeviation="0.125" result="effect1_foregroundBlur_249_395"/>
</filter>
<filter id="filter4_f_249_395" x="8.3675" y="2.32495" width="0.833752" height="5.99365" filterUnits="userSpaceOnUse" color-interpolation-filters="sRGB">
<feFlood flood-opacity="0" result="BackgroundImageFix"/>
<feBlend mode="normal" in="SourceGraphic" in2="BackgroundImageFix" result="shape"/>
<feGaussianBlur stdDeviation="0.125" result="effect1_foregroundBlur_249_395"/>
</filter>
<filter id="filter5_f_249_395" x="2.10625" y="8.47241" width="5.99375" height="0.83374" filterUnits="userSpaceOnUse" color-interpolation-filters="sRGB">
<feFlood flood-opacity="0" result="BackgroundImageFix"/>
<feBlend mode="normal" in="SourceGraphic" in2="BackgroundImageFix" result="shape"/>
<feGaussianBlur stdDeviation="0.125" result="effect1_foregroundBlur_249_395"/>
</filter>
<linearGradient id="paint0_linear_249_395" x1="7.075" y1="9.01257" x2="28.95" y2="30.6538" gradientUnits="userSpaceOnUse">
<stop stop-color="#FF454E"/>
<stop offset="1" stop-color="#F0305C"/>
</linearGradient>
<linearGradient id="paint1_linear_249_395" x1="8.405" y1="6.00502" x2="9.665" y2="6.00502" gradientUnits="userSpaceOnUse">
<stop stop-color="#CF8B51"/>
<stop offset="1" stop-color="#CB662E"/>
</linearGradient>
<radialGradient id="paint2_radial_249_395" cx="0" cy="0" r="1" gradientUnits="userSpaceOnUse" gradientTransform="translate(8.405 7.90002) rotate(40.3961) scale(1.3562 0.971944)">
<stop offset="0.421" stop-color="#CA6533"/>
<stop offset="1" stop-color="#CA6533" stop-opacity="0"/>
</radialGradient>
<linearGradient id="paint3_linear_249_395" x1="5.98375" y1="8.4275" x2="5.98375" y2="9.6875" gradientUnits="userSpaceOnUse">
<stop stop-color="#CE8149"/>
<stop offset="1" stop-color="#D46F51"/>
</linearGradient>
<radialGradient id="paint4_radial_249_395" cx="0" cy="0" r="1" gradientUnits="userSpaceOnUse" gradientTransform="translate(7.9725 8.6625) rotate(44.2149) scale(1.00828 0.47103)">
<stop stop-color="#CD6C36"/>
<stop offset="1" stop-color="#CD6C36" stop-opacity="0"/>
</radialGradient>
<radialGradient id="paint5_radial_249_395" cx="0" cy="0" r="1" gradientUnits="userSpaceOnUse" gradientTransform="translate(7.85321 7.94873) rotate(45) scale(1.10595 1.97214)">
<stop offset="0.135" stop-color="#D99666"/>
<stop offset="1" stop-color="#D99666" stop-opacity="0"/>
</radialGradient>
<linearGradient id="paint6_linear_249_395" x1="8.785" y1="2.57495" x2="8.785" y2="10.7112" gradientUnits="userSpaceOnUse">
<stop stop-color="#D99666"/>
<stop offset="1" stop-color="#D99666" stop-opacity="0"/>
</linearGradient>
<radialGradient id="paint7_radial_249_395" cx="0" cy="0" r="1" gradientUnits="userSpaceOnUse" gradientTransform="translate(2.35625 8.88991) scale(1.017 0.332063)">
<stop offset="0.135" stop-color="#D99666"/>
<stop offset="1" stop-color="#D99666" stop-opacity="0"/>
</radialGradient>
</defs>
</svg>
