<svg width="40" height="40" viewBox="0 0 40 40" fill="none" xmlns="http://www.w3.org/2000/svg">
<path d="M5 38.3333V11.6666C5 10.75 5.32667 9.96496 5.98 9.31163C6.63333 8.65829 7.41778 8.33218 8.33333 8.33329H25C25.9167 8.33329 26.7017 8.65996 27.355 9.31329C28.0083 9.96663 28.3344 10.7511 28.3333 11.6666V38.3333L16.6667 33.3333L5 38.3333ZM8.33333 33.25L16.6667 29.6666L25 33.25V11.6666H8.33333V33.25ZM31.6667 33.3333V4.99996H10V1.66663H31.6667C32.5833 1.66663 33.3683 1.99329 34.0217 2.64663C34.675 3.29996 35.0011 4.0844 35 4.99996V33.3333H31.6667Z" fill="white"/>
</svg>
