<svg width="35" height="35" viewBox="0 0 35 35" fill="none" xmlns="http://www.w3.org/2000/svg">
<path d="M25.416 1.85254C26.4414 0.676758 27.9248 0 29.4834 0C32.4639 0 34.8838 2.41992 34.8838 5.40039C34.8838 6.95898 34.207 8.44922 33.0312 9.47461L18.8672 21.8066L18.1631 21.1025L13.7881 16.7275L13.0771 16.0166L25.416 1.85254ZM11.5254 17.5615L12.2363 18.2725L16.6113 22.6475L17.3223 23.3584L16.0098 29.0596C15.7432 30.2285 14.8545 31.1582 13.6992 31.4795L1.55176 34.8838L8.07324 28.3623C8.25098 28.4102 8.44238 28.4375 8.64063 28.4375C9.85059 28.4375 10.8281 27.46 10.8281 26.25C10.8281 25.04 9.85059 24.0625 8.64063 24.0625C7.43066 24.0625 6.45313 25.04 6.45313 26.25C6.45313 26.4482 6.48047 26.6328 6.52832 26.8174L0 33.332L3.4043 21.1914C3.72559 20.0361 4.65527 19.1475 5.82422 18.8809L11.5254 17.5684V17.5615Z" fill="#6E4E92"/>
</svg>
