<svg width="122" height="43" viewBox="0 0 122 43" fill="none" xmlns="http://www.w3.org/2000/svg">
<path d="M0.585812 11.3118L0.586642 11.3121L0.586087 11.3116L0.585812 11.3118ZM0.586642 11.3121L7.59601 20.0908L26.158 20.6412C18.0612 6.3519 12.8907 16.7251 0.586642 11.3121ZM7.9244 23.7525L0.669244 32.9834C13.5378 25.528 20.4123 36.5414 26.0077 24.2884L7.9244 23.7525ZM38.1031 0.381384C33.6841 12.4763 40.608 18.9105 53.9856 15.0756C52.4405 2.75196 43.7582 10.6471 38.103 0.381524L38.1031 0.381384ZM29.7016 20.5974L29.7363 24.2474C38.0318 24.1676 46.5982 23.4343 54.9087 21.9915L73.6715 25.7226L89.7357 23.8438C89.3645 22.7443 89.1968 21.6817 89.2496 20.6236C89.2561 20.4881 89.2686 20.3549 89.2823 20.2218L78.8097 21.4466L78.8726 21.3186C76.2183 20.0144 74.3453 18.0448 72.9898 15.3387L69.7263 16.9733C70.6744 18.8662 71.9038 20.5465 73.4154 21.9494L54.9714 18.2821L54.6346 18.3414C46.4299 19.7874 37.9242 20.5181 29.701 20.5971L29.7016 20.5974ZM60.4249 29.5662C58.1139 31.8506 57.7442 36.1123 60.1712 42.1874C63.7509 32.2138 71.6656 40.355 72.3309 28.8088C66.99 26.9744 62.7366 27.2816 60.4249 29.5662ZM93.9753 7.68862L95.6655 13.696L111.992 21.4017L95.2017 29.4853L93.2759 35.1395L121.83 21.5067L93.9749 7.68876L93.9753 7.68862ZM94.5978 17.2287C93.4983 18.6047 92.949 19.7075 92.8948 20.8053C92.8375 21.9528 93.3479 23.4842 94.7762 25.639L103.509 21.4345L94.5978 17.2287Z" fill="#D2B4F4"/>
</svg>
