<svg width="60" height="60" viewBox="0 0 60 60" fill="none" xmlns="http://www.w3.org/2000/svg">
<g id="facebook">
<path id="Vector" d="M29.6875 4.6875C24.743 4.6875 19.9095 6.15372 15.7983 8.90076C11.687 11.6478 8.48271 15.5523 6.59052 20.1204C4.69833 24.6886 4.20325 29.7152 5.16788 34.5648C6.13251 39.4143 8.51353 43.8689 12.0098 47.3652C15.5062 50.8615 19.9607 53.2425 24.8102 54.2071C29.6598 55.1718 34.6864 54.6767 39.2546 52.7845C43.8227 50.8923 47.7272 47.688 50.4742 43.5767C53.2213 39.4655 54.6875 34.632 54.6875 29.6875C54.6801 23.0593 52.0439 16.7048 47.3571 12.0179C42.6702 7.33113 36.3157 4.69485 29.6875 4.6875ZM32.4653 48.9305V36.169H37.0949C37.8316 36.169 38.5382 35.8763 39.0591 35.3554C39.58 34.8344 39.8727 34.1279 39.8727 33.3912C39.8727 32.6545 39.58 31.9479 39.0591 31.427C38.5382 30.9061 37.8316 30.6134 37.0949 30.6134H32.4653V25.9838C32.4653 25.2471 32.7579 24.5405 33.2789 24.0196C33.7998 23.4987 34.5063 23.206 35.2431 23.206H38.9468C39.6835 23.206 40.39 22.9134 40.9109 22.3924C41.4319 21.8715 41.7245 21.165 41.7245 20.4282C41.7245 19.6915 41.4319 18.985 40.9109 18.4641C40.39 17.9431 39.6835 17.6505 38.9468 17.6505H35.2431C33.0329 17.6505 30.9133 18.5284 29.3505 20.0912C27.7877 21.654 26.9097 23.7737 26.9097 25.9838V30.6134H22.2801C21.5434 30.6134 20.8368 30.9061 20.3159 31.427C19.795 31.9479 19.5023 32.6545 19.5023 33.3912C19.5023 34.1279 19.795 34.8344 20.3159 35.3554C20.8368 35.8763 21.5434 36.169 22.2801 36.169H26.9097V48.9305C22.0442 48.2283 17.6253 45.7091 14.5422 41.8801C11.4592 38.0511 9.94095 33.1964 10.293 28.2931C10.645 23.3898 12.8413 18.8018 16.4397 15.4524C20.0381 12.1031 24.7716 10.2411 29.6875 10.2411C34.6034 10.2411 39.3369 12.1031 42.9353 15.4524C46.5338 18.8018 48.73 23.3898 49.082 28.2931C49.4341 33.1964 47.9158 38.0511 44.8328 41.8801C41.7497 45.7091 37.3308 48.2283 32.4653 48.9305Z" fill="#6E4E92"/>
</g>
</svg>
