<svg width="60" height="60" viewBox="0 0 60 60" fill="none" xmlns="http://www.w3.org/2000/svg">
<g id="pinterest">
<path id="Vector" d="M30 55C16.2139 55 5 43.7861 5 30C5 16.2139 16.2139 5 30 5C43.7861 5 55 16.2139 55 30C55 43.7861 43.7861 55 30 55ZM30 10.5556C19.2806 10.5556 10.5556 19.2806 10.5556 30C10.5556 40.7194 19.2806 49.4444 30 49.4444C40.7194 49.4444 49.4444 40.7194 49.4444 30C49.4444 19.2806 40.7194 10.5556 30 10.5556ZM30.9306 18.8889C24.075 18.8889 20.6194 23.8056 20.6194 27.9C20.6194 30.3861 21.5583 32.5889 23.5722 33.4111C23.9028 33.5472 24.2 33.4167 24.2972 33.0528L24.5889 31.8917C24.6861 31.5333 24.6472 31.4056 24.3833 31.0889C23.8028 30.4056 23.4278 29.5167 23.4278 28.2583C23.4278 24.6139 26.1556 21.35 30.5333 21.35C34.4111 21.35 36.5361 23.7194 36.5361 26.8778C36.5361 31.0389 34.6972 34.55 31.9639 34.55C30.4556 34.55 29.325 33.3028 29.6861 31.7694C30.1194 29.9417 30.9611 27.9694 30.9611 26.65C30.9611 25.4667 30.325 24.4861 29.0167 24.4861C27.4722 24.4861 26.2333 26.0806 26.2333 28.2194C26.2333 29.5806 26.6944 30.5028 26.6944 30.5028L24.8361 38.3639C24.2861 40.6972 24.7556 43.5583 24.7944 43.8472C24.8167 44.0194 25.0361 44.0611 25.1361 43.9306C25.2806 43.7444 27.1167 41.4722 27.7417 39.2083C27.9194 38.5694 28.7583 35.2444 28.7583 35.2444C29.2583 36.2 30.7222 37.0389 32.2806 37.0389C36.9194 37.0389 40.0667 32.8139 40.0667 27.15C40.0639 22.8778 36.4389 18.8889 30.9306 18.8889Z" fill="#6E4E92"/>
</g>
</svg>
