<svg width="60" height="60" viewBox="0 0 60 60" fill="none" xmlns="http://www.w3.org/2000/svg">
<g id="twi">
<g id="Group">
<path id="Vector" d="M30 50C35.3043 50 40.3914 47.8929 44.1421 44.1421C47.8929 40.3914 50 35.3043 50 30C50 24.6957 47.8929 19.6086 44.1421 15.8579C40.3914 12.1071 35.3043 10 30 10C24.6957 10 19.6086 12.1071 15.8579 15.8579C12.1071 19.6086 10 24.6957 10 30C10 35.3043 12.1071 40.3914 15.8579 44.1421C19.6086 47.8929 24.6957 50 30 50ZM30 55C16.1925 55 5 43.8075 5 30C5 16.1925 16.1925 5 30 5C43.8075 5 55 16.1925 55 30C55 43.8075 43.8075 55 30 55Z" fill="#6E4E92"/>
<path id="Vector_2" d="M43 22.3675C42.08 22.7675 41.0925 23.0425 40.055 23.1625C41.115 22.5375 41.925 21.5475 42.31 20.37C41.2999 20.9587 40.1978 21.3728 39.05 21.595C38.5672 21.0889 37.9864 20.6865 37.3429 20.4123C36.6995 20.1381 36.0069 19.9978 35.3075 20C32.475 20 30.18 22.2625 30.18 25.05C30.18 25.445 30.225 25.83 30.3125 26.2C28.2808 26.1035 26.2915 25.5846 24.4716 24.6764C22.6517 23.7681 21.0411 22.4905 19.7425 20.925C19.2864 21.6928 19.0463 22.5695 19.0475 23.4625C19.0475 25.2125 19.955 26.7625 21.33 27.665C20.5161 27.6395 19.7197 27.4228 19.005 27.0325V27.095C19.0127 28.2687 19.427 29.4033 20.1773 30.3059C20.9276 31.2084 21.9675 31.823 23.12 32.045C22.3634 32.2451 21.5717 32.2741 20.8025 32.13C21.1378 33.1397 21.7792 34.0199 22.6376 34.6484C23.4959 35.277 24.5287 35.6227 25.5925 35.6375C23.7674 37.0439 21.5266 37.8037 19.2225 37.7975C18.81 37.7975 18.4025 37.7725 18 37.7275C20.3512 39.2157 23.0774 40.0039 25.86 40C35.295 40 40.4525 32.305 40.4525 25.63L40.435 24.975C41.4407 24.2682 42.3098 23.3847 43 22.3675Z" fill="#6E4E92"/>
</g>
</g>
</svg>
